Coordinates
version=1
nRows=32
nColumns=12
inDegrees=yes

Units are S.I. units (second, meters, Newtons, ...)
Angles are in degrees

endheader
time	SC_y	SC_z	SC_x	AC_y	AC_z	AC_x	GH_y	GH_z	GH_yy	EL_x	PS_y
       0.0              -58.46          11.47           1.58          34.01          2.746          7.164          34.28          70.79         -15.26          134.7          17.86
  0.009729              -58.46          11.47          1.582          34.01          2.745          7.161          34.29          70.79         -15.28          134.7          17.87
   0.01946              -58.46          11.47          1.584          34.02          2.743          7.158           34.3          70.79         -15.29          134.7          17.89
   0.02919              -58.46          11.47          1.586          34.02          2.741          7.155          34.31          70.78         -15.31          134.7          17.91
   0.03892              -58.46          11.46          1.588          34.03           2.74          7.152          34.32          70.78         -15.33          134.7          17.93
   0.04865              -58.46          11.46          1.591          34.03          2.738          7.148          34.33          70.78         -15.35          134.7          17.95
   0.05838              -58.46          11.46          1.593          34.04          2.735          7.144          34.34          70.78         -15.37          134.7          17.98
   0.06811              -58.46          11.46          1.596          34.04          2.733           7.14          34.36          70.78          -15.4          134.7           18.0
   0.07784              -58.45          11.45          1.599          34.05          2.731          7.136          34.37          70.77         -15.42          134.6          18.03
   0.08757              -58.45          11.45          1.602          34.05          2.728          7.131          34.39          70.77         -15.45          134.6          18.06
   0.09729              -58.45          11.45          1.606          34.06          2.726          7.126           34.4          70.77         -15.48          134.6          18.09
     0.107              -58.45          11.44           1.61          34.07          2.723          7.121          34.42          70.77         -15.51          134.6          18.12
    0.1168              -58.45          11.44          1.614          34.07          2.719          7.115          34.44          70.76         -15.54          134.6          18.16
    0.1265              -58.45          11.44          1.618          34.08          2.716          7.109          34.46          70.76         -15.58          134.5           18.2
    0.1362              -58.45          11.43          1.623          34.09          2.712          7.102          34.49          70.75         -15.62          134.5          18.24
    0.1459              -58.45          11.43          1.628           34.1          2.708          7.095          34.51          70.75         -15.66          134.5          18.29
    0.1557              -58.45          11.42          1.633          34.11          2.704          7.087          34.54          70.75         -15.71          134.4          18.34
    0.1654              -58.45          11.42          1.639          34.12          2.699          7.078          34.57          70.74         -15.76          134.4          18.39
    0.1751              -58.45          11.41          1.646          34.14          2.694          7.068           34.6          70.74         -15.81          134.4          18.45
    0.1849              -58.45           11.4          1.653          34.15          2.688          7.058          34.64          70.73         -15.87          134.3          18.51
    0.1946              -58.45           11.4          1.661          34.16          2.682          7.046          34.68          70.72         -15.94          134.3          18.58
    0.2043              -58.45          11.39          1.669          34.18          2.675          7.034          34.72          70.72         -16.01          134.2          18.66
     0.214              -58.45          11.38          1.679           34.2          2.667           7.02          34.77          70.71         -16.09          134.2          18.75
    0.2238              -58.45          11.37           1.69          34.22          2.659          7.004          34.82           70.7         -16.18          134.1          18.84
    0.2335              -58.45          11.36          1.702          34.24          2.649          6.987          34.88          70.69         -16.28          134.1          18.95
    0.2432              -58.45          11.35          1.715          34.27          2.639          6.968          34.94          70.68         -16.39          134.0          19.07
     0.253              -58.45          11.33           1.73           34.3          2.627          6.946          35.02          70.67         -16.52          133.9           19.2
    0.2627              -58.44          11.32          1.746          34.33          2.614          6.922           35.1          70.66         -16.66          133.8          19.35
    0.2724              -58.44           11.3          1.765          34.36          2.599          6.895          35.19          70.64         -16.81          133.7          19.52
    0.2822              -58.44          11.28          1.786           34.4          2.582          6.864           35.3          70.62         -16.99          133.6          19.71
    0.2919              -58.44          11.26          1.811          34.45          2.563          6.829          35.42           70.6          -17.2          133.4          19.93
    0.3016              -58.44          11.23          1.839           34.5          2.541          6.788          35.56          70.58         -17.43          133.3          20.18
